# xmcd
#
# Track frame offsets: 
#        150
#        23219
#        44457
#        66469
#        93529
#        114032
#        128217
#        143289
#        157988
#        170670
#        191468
#
# Disc length: 2875 seconds
#
# Revision: 2
# Processed by: cddbd v1.5.2PL0 Copyright (c) Steve Scherf et al.
# Submitted via: ExactAudioCopy v1.3
#
DISCID=8d0b390b
DTITLE=De Dijk - Muzikanten dansen niet
DYEAR=2002
DGENRE=Rock
TTITLE0=Ga in mijn schoenen staan
TTITLE1=Wil je altijd van me houden
TTITLE2=Muzikanten dansen niet
TTITLE3=Dansen in het duister
TTITLE4=Beter dan ooit
TTITLE5=In Nederland
TTITLE6=Dat zou mooi zijn
TTITLE7=Niet weet
TTITLE8=November
TTITLE9=Mijn liefjes ogen
TTITLE10=Zoals nog nooit
EXTD=
EXTT0=
EXTT1=
EXTT2=
EXTT3=
EXTT4=
EXTT5=
EXTT6=
EXTT7=
EXTT8=
EXTT9=
EXTT10=
PLAYORDER=
